# Blender v2.93.0 OBJ File: ''
# www.blender.org
mtllib obamium.mtl
o Cone
v 0.353554 -0.250000 -0.353554
v 0.000000 0.250000 0.000000
v 0.353554 -0.250000 0.353553
v -0.353554 -0.250000 0.353553
v -0.353554 -0.250000 -0.353554
vt 0.314626 0.405267
vt 0.512802 0.673880
vt 0.719668 0.404978
vt 0.311104 0.955797
vt 0.514064 0.687468
vt 0.713799 0.956486
vt 0.306798 0.397642
vt 0.720777 0.398157
vt 0.722062 0.085041
vt 0.305389 0.086592
vt 0.725117 0.954722
vt 0.524842 0.685374
vt 0.930074 0.684562
vt 0.931105 0.675402
vt 0.520858 0.676862
vt 0.728375 0.407020
vn 0.8165 0.5774 0.0000
vn 0.0000 0.5774 0.8165
vn 0.0000 -1.0000 -0.0000
vn -0.8165 0.5774 0.0000
vn 0.0000 0.5774 -0.8165
usemtl Material.001
s 1
f 1/1/1 2/2/1 3/3/1
f 3/4/2 2/5/2 4/6/2
f 1/7/3 3/8/3 4/9/3 5/10/3
f 4/11/4 2/12/4 5/13/4
f 5/14/5 2/15/5 1/16/5